<?xml version="1.0" encoding="UTF-8" standalone="no"?>
<!-- Generator: Adobe Illustrator 18.0.0, SVG Export Plug-In . SVG Version: 6.00 Build 0)  -->

<svg
   xmlns:dc="http://purl.org/dc/elements/1.1/"
   xmlns:cc="http://creativecommons.org/ns#"
   xmlns:rdf="http://www.w3.org/1999/02/22-rdf-syntax-ns#"
   xmlns:svg="http://www.w3.org/2000/svg"
   xmlns="http://www.w3.org/2000/svg"
   xmlns:sodipodi="http://sodipodi.sourceforge.net/DTD/sodipodi-0.dtd"
   xmlns:inkscape="http://www.inkscape.org/namespaces/inkscape"
   version="1.1"
   id="Capa_1"
   x="0px"
   y="0px"
   viewBox="0 0 32 32"
   style="enable-background:new 0 0 32 32;"
   xml:space="preserve"
   inkscape:version="0.48.5 r10040"
   width="100%"
   height="100%"
   sodipodi:docname="two298.svg"><metadata
     id="metadata3339"><rdf:RDF><cc:Work
         rdf:about=""><dc:format>image/svg+xml</dc:format><dc:type
           rdf:resource="http://purl.org/dc/dcmitype/StillImage" /></cc:Work></rdf:RDF></metadata><defs
     id="defs3337" /><sodipodi:namedview
     pagecolor="#ffffff"
     bordercolor="#666666"
     borderopacity="1"
     objecttolerance="10"
     gridtolerance="10"
     guidetolerance="10"
     inkscape:pageopacity="0"
     inkscape:pageshadow="2"
     inkscape:window-width="640"
     inkscape:window-height="480"
     id="namedview3335"
     showgrid="false"
     inkscape:zoom="7.375"
     inkscape:cx="16"
     inkscape:cy="16"
     inkscape:window-x="0"
     inkscape:window-y="0"
     inkscape:window-maximized="0"
     inkscape:current-layer="Capa_1" /><g
     id="Layers"
     style="fill:#ffffff"><g
       id="g3301"
       style="fill:#ffffff"><path
         style="fill-rule:evenodd;clip-rule:evenodd;fill:#ffffff"
         d="M30,0H10C8.896,0,8,0.895,8,2v6H2c-1.104,0-2,0.895-2,2v20    c0,1.104,0.896,2,2,2h20c1.105,0,2-0.896,2-2v-6h6c1.104,0,2-0.896,2-2V2C32,0.895,31.104,0,30,0z M21,29H3V11h5v11    c0,1.105,0.896,2,2,2h11V29z M29,21H11V3h18V21z"
         id="path3303" /></g></g><g
     id="g3305" /><g
     id="g3307" /><g
     id="g3309" /><g
     id="g3311" /><g
     id="g3313" /><g
     id="g3315" /><g
     id="g3317" /><g
     id="g3319" /><g
     id="g3321" /><g
     id="g3323" /><g
     id="g3325" /><g
     id="g3327" /><g
     id="g3329" /><g
     id="g3331" /><g
     id="g3333" /></svg>