<?xml version="1.0" encoding="UTF-8" standalone="no"?>
<!-- Generator: Adobe Illustrator 16.0.0, SVG Export Plug-In . SVG Version: 6.00 Build 0)  -->

<svg
   xmlns:dc="http://purl.org/dc/elements/1.1/"
   xmlns:cc="http://creativecommons.org/ns#"
   xmlns:rdf="http://www.w3.org/1999/02/22-rdf-syntax-ns#"
   xmlns:svg="http://www.w3.org/2000/svg"
   xmlns="http://www.w3.org/2000/svg"
   xmlns:sodipodi="http://sodipodi.sourceforge.net/DTD/sodipodi-0.dtd"
   xmlns:inkscape="http://www.inkscape.org/namespaces/inkscape"
   version="1.1"
   x="0px"
   y="0px"
   width="50px"
   height="50px"
   viewBox="0 0 50 50"
   enable-background="new 0 0 50 50"
   xml:space="preserve"
   id="svg2"
   inkscape:version="0.48.5 r10040"
   sodipodi:docname="data45.svg"><metadata
     id="metadata245"><rdf:RDF><cc:Work
         rdf:about=""><dc:format>image/svg+xml</dc:format><dc:type
           rdf:resource="http://purl.org/dc/dcmitype/StillImage" /></cc:Work></rdf:RDF></metadata><defs
     id="defs243" /><sodipodi:namedview
     pagecolor="#ffffff"
     bordercolor="#666666"
     borderopacity="1"
     objecttolerance="10"
     gridtolerance="10"
     guidetolerance="10"
     inkscape:pageopacity="0"
     inkscape:pageshadow="2"
     inkscape:window-width="640"
     inkscape:window-height="480"
     id="namedview241"
     showgrid="false"
     inkscape:zoom="4.72"
     inkscape:cx="25"
     inkscape:cy="25"
     inkscape:window-x="0"
     inkscape:window-y="0"
     inkscape:window-maximized="0"
     inkscape:current-layer="svg2" /><g
     id="text" /><g
     id="_x31_" /><g
     id="_x32_" /><g
     id="_x33__1_" /><g
     id="_x34_" /><g
     id="_x35_" /><g
     id="_x36_" /><g
     id="_x37_" /><g
     id="_x38_" /><g
     id="_x39_" /><g
     id="_x31_0" /><g
     id="_x31_1" /><g
     id="_x31_2" /><g
     id="_x31_3" /><g
     id="_x31_4" /><g
     id="_x31_5" /><g
     id="_x31_6" /><g
     id="_x31_7" /><g
     id="_x31_8" /><g
     id="_x31_9" /><g
     id="_x32_0" /><g
     id="_x32_1" /><g
     id="_x32_2" /><g
     id="_x32_3" /><g
     id="_x32_4" /><g
     id="_x32_5" /><g
     id="_x32_6" /><g
     id="_x32_7" /><g
     id="_x32_8" /><g
     id="_x32_9" /><g
     id="_x33_0" /><g
     id="_x33_1" /><g
     id="_x33_2" /><g
     id="_x33_3" /><g
     id="_x33_4" /><g
     id="_x33_5" /><g
     id="_x33_6" /><g
     id="_x33_7" /><g
     id="_x33_8" /><g
     id="_x33_9" /><g
     id="_x34_0" /><g
     id="_x34_1" /><g
     id="_x34_2" /><g
     id="_x34_3" /><g
     id="_x34_4" /><g
     id="_x34_5" /><g
     id="_x34_6" /><g
     id="_x34_7" /><g
     id="_x34_8" /><g
     id="_x34_9" /><g
     id="_x35_0" /><g
     id="_x35_1" /><g
     id="_x35_2" /><g
     id="_x35_3" /><g
     id="_x35_4" /><g
     id="_x35_5" /><g
     id="_x35_6" /><g
     id="_x35_7" /><g
     id="_x35_8" /><g
     id="_x35_9" /><g
     id="_x36_0" /><g
     id="_x36_1" /><g
     id="_x36_2" /><g
     id="_x36_3" /><g
     id="_x36_4" /><g
     id="_x36_5" /><g
     id="_x36_6" /><g
     id="_x36_7" /><g
     id="_x36_8" /><g
     id="_x36_9" /><g
     id="_x37_0" /><g
     id="_x37_1" /><g
     id="_x37_2" /><g
     id="_x37_3" /><g
     id="_x37_4" /><g
     id="_x37_5" /><g
     id="_x37_6" /><g
     id="_x37_7" /><g
     id="_x37_8" /><g
     id="_x37_9" /><g
     id="_x38_0" /><g
     id="_x38_1" /><g
     id="_x38_2" /><g
     id="_x38_3" /><g
     id="_x38_4" /><g
     id="_x38_5" /><g
     id="_x38_6" /><g
     id="_x38_7" /><g
     id="_x38_8" /><g
     id="_x38_9" /><g
     id="_x39_0" /><g
     id="_x39_1" /><g
     id="_x39_2" /><g
     id="_x39_3" /><g
     id="_x39_4" /><g
     id="_x39_5" /><g
     id="_x39_6" /><g
     id="_x39_7" /><g
     id="_x39_8" /><g
     id="_x39_9" /><g
     id="_x31_00" /><g
     id="_x31_01" /><g
     id="_x31_02" /><g
     id="_x31_03" /><g
     id="_x31_04" /><g
     id="_x31_05" /><g
     id="_x31_06" /><g
     id="_x31_07" /><g
     id="_x31_08" /><g
     id="_x31_09" /><g
     id="_x31_10" /><g
     id="_x31_11" /><g
     id="_x31_12" /><g
     id="_x31_13" /><g
     id="_x31_14" /><g
     id="_x31_15" /><g
     id="_x31_16" /><g
     id="_x31_17" /><g
     id="_x31_18" /><g
     id="_x31_19" /><g
     id="_x31_20" /><g
     id="_x31_21" /><g
     id="_x31_22" /><g
     id="_x31_23" /><g
     id="_x31_24" /><g
     id="_x31_25" /><g
     id="_x31_26" /><g
     id="_x31_27" /><g
     id="_x31_28" /><g
     id="_x31_29" /><g
     id="_x31_30" /><g
     id="_x31_31" /><g
     id="_x31_32" /><g
     id="_x31_33" /><g
     id="_x31_34" /><g
     id="_x31_35" /><g
     id="_x31_36" /><g
     id="_x31_37" /><g
     id="_x31_38" /><g
     id="_x31_39" /><g
     id="_x31_40" /><g
     id="_x31_41" /><g
     id="_x31_42" /><g
     id="_x31_43" /><g
     id="_x31_44" /><g
     id="_x31_45" /><g
     id="_x31_46" /><g
     id="_x31_47" /><g
     id="_x31_48" /><g
     id="_x31_49" /><g
     id="_x31_50" /><g
     id="_x31_51" /><g
     id="_x31_52" /><g
     id="_x31_53" /><g
     id="_x31_54" /><g
     id="_x31_55" /><g
     id="_x31_56" /><g
     id="_x31_57" /><g
     id="_x31_58" /><g
     id="_x31_59" /><g
     id="_x31_60" /><g
     id="_x31_61" /><g
     id="_x31_62" /><g
     id="_x31_63" /><g
     id="_x31_64" /><g
     id="_x31_65" /><g
     id="_x31_66" /><g
     id="_x31_67" /><g
     id="_x31_68" /><g
     id="_x31_69" /><g
     id="_x31_70" /><g
     id="_x31_71" /><g
     id="_x31_72" /><g
     id="_x31_73" /><g
     id="_x31_74" /><g
     id="_x31_75" /><g
     id="_x31_76" /><g
     id="_x31_77" /><g
     id="_x31_78" /><g
     id="_x31_79" /><g
     id="_x31_80" /><g
     id="_x31_81" /><g
     id="_x31_82" /><g
     id="_x31_83" /><g
     id="_x31_84" /><g
     id="_x31_85" /><g
     id="_x31_86"
     style="fill:#ffffff"><g
       id="g191"
       style="fill:#ffffff"><path
         d="M15.821,21.274c0,0-0.063-0.694-0.094-1.042c0.164-0.094,0.321-0.196,0.468-0.31c0.261,0.15,0.781,0.451,0.781,0.451    l0.887-0.233l1.006-1.739l-0.233-0.887c0,0-0.67-0.389-1.005-0.581c-0.009-0.193-0.03-0.385-0.069-0.569    c0.266-0.228,0.796-0.682,0.796-0.682v-0.917l-1.309-1.526h-0.917c0,0-0.435,0.372-0.652,0.559    c-0.236-0.114-0.485-0.208-0.745-0.279c-0.021-0.258-0.063-0.775-0.063-0.775l-0.648-0.648l-2.003,0.162l-0.648,0.648    c0,0,0.055,0.681,0.082,1.021c-0.196,0.111-0.381,0.237-0.554,0.378c-0.281-0.13-0.846-0.387-0.846-0.387l-0.887,0.232    l-0.839,1.828l-0.029,0.125l0.263,0.762c0,0,0.654,0.299,0.982,0.449c0.014,0.216,0.047,0.425,0.101,0.63    c-0.25,0.21-0.749,0.635-0.749,0.635v0.916l1.299,1.534c0,0,0.755,0.09,0.796,0.067c0.041-0.022,0.122-0.067,0.122-0.067    s0.475-0.402,0.712-0.604c0.2,0.09,0.409,0.165,0.626,0.224c0.024,0.27,0.074,0.809,0.074,0.809l0.648,0.648l2-0.183    L15.821,21.274z M13.476,19.122c-1.116,0-2.021-0.905-2.021-2.021c0-1.117,0.905-2.022,2.021-2.022    c1.118,0,2.023,0.905,2.023,2.022C15.499,18.216,14.594,19.122,13.476,19.122z"
         id="path193"
         style="fill:#ffffff" /><path
         d="M21.379,27.848c0,0-0.048-0.525-0.071-0.788c0.124-0.071,0.243-0.148,0.354-0.234c0.197,0.113,0.59,0.341,0.59,0.341    l0.671-0.176l0.761-1.315l-0.176-0.67c0,0-0.506-0.294-0.76-0.439c-0.006-0.146-0.022-0.291-0.052-0.43    c0.201-0.172,0.602-0.516,0.602-0.516v-0.693l-0.99-1.154h-0.694c0,0-0.329,0.281-0.493,0.422    c-0.178-0.086-0.367-0.157-0.563-0.211c-0.016-0.195-0.047-0.586-0.047-0.586l-0.49-0.49l-1.514,0.123l-0.49,0.49    c0,0,0.042,0.515,0.062,0.771c-0.148,0.084-0.289,0.18-0.419,0.286c-0.212-0.098-0.639-0.292-0.639-0.292l-0.671,0.176    l-0.634,1.382l-0.022,0.094l0.199,0.576c0,0,0.495,0.226,0.742,0.339c0.011,0.164,0.036,0.321,0.077,0.477    c-0.189,0.159-0.566,0.479-0.566,0.479v0.693l0.982,1.16c0,0,0.571,0.068,0.602,0.051c0.031-0.017,0.092-0.051,0.092-0.051    s0.359-0.304,0.538-0.456c0.151,0.068,0.309,0.125,0.474,0.169c0.019,0.204,0.056,0.611,0.056,0.611l0.49,0.49l1.512-0.138    L21.379,27.848z M19.606,26.221c-0.844,0-1.528-0.685-1.528-1.528c0-0.845,0.684-1.529,1.528-1.529c0.845,0,1.53,0.685,1.53,1.529    C21.136,25.536,20.451,26.221,19.606,26.221z"
         id="path195"
         style="fill:#ffffff" /><path
         d="M35.314,8.786c-6.418,0-12.835,0-19.253,0c-1.612,0-1.612,2.5,0,2.5c6.418,0,12.835,0,19.253,0    C36.926,11.286,36.926,8.786,35.314,8.786z"
         id="path197"
         style="fill:#ffffff" /><path
         d="M35.314,14.703c-6.418,0-2.835,0-9.253,0c-1.612,0-1.612,2.5,0,2.5c6.418,0,2.835,0,9.253,0    C36.926,17.203,36.926,14.703,35.314,14.703z"
         id="path199"
         style="fill:#ffffff" /><polygon
         points="9.859,5.661 38.913,5.661 38.913,21.528 41.913,21.528 41.913,2.661 6.859,2.661 6.859,12.445 9.859,12.445   "
         id="polygon201"
         style="fill:#ffffff" /><path
         d="M36.631,38.454c-0.004-0.319-0.029-0.636-0.084-0.943c0.449-0.361,1.349-1.082,1.349-1.082l0.049-1.511l-2.077-2.586    l-1.513-0.049c0,0-0.737,0.592-1.104,0.887c-0.383-0.2-0.788-0.369-1.213-0.5c-0.021-0.427-0.063-1.282-0.063-1.282l-1.035-1.102    l-3.31,0.161l-1.103,1.034c0,0,0.054,1.125,0.081,1.687c-0.329,0.173-0.641,0.372-0.933,0.593    c-0.457-0.228-1.374-0.683-1.374-0.683l-1.475,0.337l-1.479,2.97l-0.055,0.203l0.392,1.271c0,0,1.063,0.526,1.595,0.79    c0.012,0.358,0.056,0.705,0.133,1.044c-0.423,0.334-1.269,1.008-1.269,1.008l-0.049,1.509l2.06,2.597c0,0,1.24,0.189,1.308,0.154    c0.068-0.035,0.204-0.105,0.204-0.105s0.804-0.637,1.206-0.956c0.325,0.159,0.665,0.295,1.02,0.402    c0.026,0.446,0.078,1.337,0.078,1.337l1.035,1.102l3.306-0.194l1.103-1.033c0,0-0.066-1.149-0.1-1.723    c0.274-0.146,0.539-0.307,0.789-0.487c0.421,0.262,1.263,0.786,1.263,0.786l1.475-0.338l1.752-2.814l-0.337-1.475    C38.257,39.464,37.173,38.79,36.631,38.454z M29.665,41.84c-1.84-0.059-3.284-1.599-3.224-3.439    c0.059-1.843,1.599-3.286,3.439-3.227c1.842,0.06,3.286,1.599,3.227,3.442C33.047,40.457,31.507,41.9,29.665,41.84z"
         id="path203"
         style="fill:#ffffff" /><path
         d="M42.778,31.402c0,0-1.166-0.725-1.75-1.087c-0.004-0.343-0.031-0.683-0.09-1.012c0.484-0.389,1.452-1.165,1.452-1.165    l0.053-1.625l-2.235-2.782l-1.626-0.053c0,0-0.793,0.635-1.188,0.955c-0.412-0.217-0.848-0.399-1.306-0.539    c-0.022-0.46-0.067-1.379-0.067-1.379l-1.112-1.187l-3.561,0.174l-1.187,1.112c0,0,0.059,1.209,0.087,1.813    c-0.354,0.187-0.689,0.4-1.003,0.639c-0.491-0.245-1.479-0.734-1.479-0.734l-1.585,0.363l-1.592,3.193l-0.06,0.219l0.423,1.367    c0,0,0.746,0.37,1.334,0.662l0.661-0.619l0.269-0.251l0.367-0.018l2.657-0.129c0.465-1.506,1.877-2.583,3.528-2.53    c1.981,0.063,3.535,1.719,3.471,3.7c-0.017,0.533-0.157,1.031-0.38,1.479l1.866,2.324l0.232,0.289l-0.012,0.37l-0.031,0.958    c0.386,0.24,0.757,0.471,0.757,0.471l1.586-0.363l1.884-3.026L42.778,31.402z"
         id="path205"
         style="fill:#ffffff" /><path
         d="M8.588,27.851c0.294,0,0.537-0.08,0.73-0.238c0.193-0.158,0.339-0.382,0.436-0.671c0.097-0.29,0.146-0.671,0.146-1.144    c0-0.398-0.031-0.716-0.09-0.95c-0.061-0.236-0.145-0.435-0.25-0.6c-0.108-0.163-0.242-0.289-0.404-0.375    c-0.163-0.086-0.352-0.13-0.568-0.13c-0.293,0-0.536,0.078-0.729,0.236c-0.193,0.157-0.339,0.38-0.438,0.67    c-0.096,0.291-0.146,0.673-0.146,1.149c0,0.756,0.132,1.301,0.396,1.636C7.894,27.711,8.199,27.851,8.588,27.851z M8.039,24.439    c0.135-0.192,0.317-0.289,0.544-0.289c0.23,0,0.422,0.109,0.578,0.326c0.154,0.218,0.232,0.658,0.232,1.32    c0,0.659-0.078,1.098-0.232,1.317c-0.155,0.22-0.346,0.33-0.572,0.33c-0.227,0-0.418-0.11-0.572-0.329    c-0.155-0.218-0.232-0.658-0.232-1.318C7.783,25.137,7.868,24.684,8.039,24.439z"
         id="path207"
         style="fill:#ffffff" /><path
         d="M11.504,24.28c-0.207,0.185-0.449,0.342-0.725,0.473v0.477c0.154-0.056,0.328-0.141,0.521-0.255    c0.193-0.113,0.348-0.227,0.467-0.339v3.147h0.494v-4.04h-0.319C11.857,23.917,11.711,24.095,11.504,24.28z"
         id="path209"
         style="fill:#ffffff" /><path
         d="M9.654,30.248c-0.107-0.163-0.24-0.289-0.404-0.375c-0.163-0.086-0.352-0.13-0.568-0.13c-0.292,0-0.536,0.078-0.729,0.236    c-0.193,0.157-0.337,0.38-0.436,0.67C7.42,30.939,7.37,31.322,7.37,31.797c0,0.756,0.133,1.301,0.398,1.636    c0.221,0.278,0.525,0.417,0.914,0.417c0.294,0,0.538-0.08,0.732-0.238c0.191-0.158,0.337-0.382,0.435-0.671    c0.097-0.29,0.146-0.671,0.146-1.144c0-0.398-0.03-0.716-0.09-0.95C9.843,30.611,9.759,30.412,9.654,30.248z M9.254,33.114    c-0.155,0.22-0.345,0.33-0.572,0.33c-0.227,0-0.417-0.11-0.572-0.329c-0.155-0.218-0.23-0.658-0.23-1.318    c0-0.66,0.083-1.113,0.253-1.358c0.135-0.192,0.317-0.289,0.544-0.289c0.231,0,0.423,0.109,0.578,0.326    c0.155,0.218,0.232,0.658,0.232,1.32C9.486,32.457,9.409,32.895,9.254,33.114z"
         id="path211"
         style="fill:#ffffff" /><path
         d="M12.356,33.782v-4.04h-0.319c-0.085,0.174-0.232,0.353-0.438,0.538s-0.448,0.342-0.724,0.473v0.477    c0.153-0.056,0.327-0.141,0.52-0.255c0.193-0.113,0.349-0.227,0.467-0.339v3.147H12.356z"
         id="path213"
         style="fill:#ffffff" /><path
         d="M15.064,33.782v-4.04h-0.318c-0.085,0.174-0.232,0.353-0.438,0.538s-0.448,0.342-0.724,0.473v0.477    c0.152-0.056,0.327-0.141,0.52-0.255c0.193-0.113,0.35-0.227,0.467-0.339v3.147H15.064z"
         id="path215"
         style="fill:#ffffff" /><path
         d="M18.613,30.248c-0.107-0.163-0.24-0.289-0.404-0.375c-0.163-0.086-0.352-0.13-0.567-0.13c-0.293,0-0.537,0.078-0.73,0.236    c-0.193,0.157-0.337,0.38-0.436,0.67c-0.097,0.291-0.146,0.673-0.146,1.149c0,0.756,0.132,1.301,0.397,1.636    c0.221,0.278,0.526,0.417,0.915,0.417c0.293,0,0.537-0.08,0.73-0.238c0.193-0.158,0.337-0.382,0.435-0.671    c0.097-0.29,0.147-0.671,0.147-1.144c0-0.398-0.031-0.716-0.092-0.95C18.803,30.611,18.72,30.412,18.613,30.248z M18.213,33.114    c-0.155,0.22-0.345,0.33-0.571,0.33c-0.228,0-0.418-0.11-0.574-0.329c-0.155-0.218-0.23-0.658-0.23-1.318    c0-0.66,0.085-1.113,0.253-1.358c0.137-0.192,0.317-0.289,0.544-0.289c0.231,0,0.423,0.109,0.578,0.326    c0.155,0.218,0.232,0.658,0.232,1.32C18.446,32.457,18.369,32.895,18.213,33.114z"
         id="path217"
         style="fill:#ffffff" /><path
         d="M9.654,36.993c-0.107-0.164-0.24-0.289-0.404-0.376c-0.163-0.086-0.352-0.13-0.568-0.13c-0.292,0-0.536,0.079-0.729,0.236    c-0.193,0.157-0.337,0.381-0.436,0.67C7.42,37.684,7.37,38.066,7.37,38.542c0,0.757,0.133,1.302,0.398,1.636    c0.221,0.278,0.525,0.418,0.914,0.418c0.294,0,0.538-0.079,0.732-0.238c0.191-0.158,0.337-0.382,0.435-0.672    c0.097-0.289,0.146-0.671,0.146-1.144c0-0.397-0.03-0.716-0.09-0.95C9.843,37.356,9.759,37.157,9.654,36.993z M9.254,39.86    c-0.155,0.219-0.345,0.329-0.572,0.329c-0.227,0-0.417-0.109-0.572-0.328c-0.155-0.219-0.23-0.658-0.23-1.319    c0-0.659,0.083-1.112,0.253-1.357c0.135-0.192,0.317-0.289,0.544-0.289c0.231,0,0.423,0.109,0.578,0.326    c0.155,0.218,0.232,0.658,0.232,1.32C9.486,39.201,9.409,39.64,9.254,39.86z"
         id="path219"
         style="fill:#ffffff" /><path
         d="M12.78,36.993c-0.108-0.164-0.242-0.289-0.404-0.376c-0.163-0.086-0.352-0.13-0.568-0.13    c-0.292,0-0.536,0.079-0.729,0.236c-0.193,0.157-0.339,0.381-0.438,0.67c-0.097,0.291-0.146,0.672-0.146,1.148    c0,0.757,0.132,1.302,0.396,1.636c0.222,0.278,0.526,0.418,0.915,0.418c0.294,0,0.538-0.079,0.73-0.238    c0.193-0.158,0.339-0.382,0.436-0.672c0.097-0.289,0.146-0.671,0.146-1.144c0-0.397-0.031-0.716-0.09-0.95    C12.969,37.356,12.885,37.157,12.78,36.993z M12.38,39.86c-0.155,0.219-0.345,0.329-0.572,0.329c-0.227,0-0.418-0.109-0.572-0.328    c-0.155-0.219-0.232-0.658-0.232-1.319c0-0.659,0.085-1.112,0.255-1.357c0.135-0.192,0.317-0.289,0.544-0.289    c0.231,0,0.423,0.109,0.578,0.326c0.154,0.218,0.232,0.658,0.232,1.32C12.612,39.201,12.534,39.64,12.38,39.86z"
         id="path221"
         style="fill:#ffffff" /><path
         d="M15.904,36.993c-0.106-0.164-0.24-0.289-0.402-0.376c-0.165-0.086-0.354-0.13-0.568-0.13    c-0.292,0-0.536,0.079-0.729,0.236c-0.194,0.157-0.339,0.381-0.438,0.67c-0.097,0.291-0.146,0.672-0.146,1.148    c0,0.757,0.132,1.302,0.396,1.636c0.222,0.278,0.526,0.418,0.915,0.418c0.293,0,0.538-0.079,0.73-0.238    c0.193-0.158,0.337-0.382,0.435-0.672c0.097-0.289,0.147-0.671,0.147-1.144c0-0.397-0.031-0.716-0.092-0.95    C16.095,37.356,16.011,37.157,15.904,36.993z M15.505,39.86c-0.154,0.219-0.346,0.329-0.571,0.329    c-0.228,0-0.418-0.109-0.573-0.328c-0.155-0.219-0.231-0.658-0.231-1.319c0-0.659,0.085-1.112,0.254-1.357    c0.136-0.192,0.318-0.289,0.544-0.289c0.23,0,0.423,0.109,0.578,0.326c0.155,0.218,0.233,0.658,0.233,1.32    C15.738,39.201,15.66,39.64,15.505,39.86z"
         id="path223"
         style="fill:#ffffff" /><path
         d="M18.609,40.527v-4.04h-0.318c-0.086,0.174-0.233,0.353-0.44,0.538s-0.448,0.342-0.724,0.473v0.477    c0.154-0.057,0.327-0.142,0.52-0.255c0.193-0.114,0.35-0.228,0.467-0.34v3.148H18.609z"
         id="path225"
         style="fill:#ffffff" /><path
         d="M21.276,43.573c-0.207,0.185-0.449,0.342-0.725,0.473v0.477c0.154-0.057,0.328-0.141,0.521-0.254    c0.193-0.113,0.348-0.227,0.467-0.34v3.147h0.494v-4.041h-0.319C21.628,43.209,21.482,43.388,21.276,43.573z"
         id="path227"
         style="fill:#ffffff" /><path
         d="M9.654,43.738c-0.107-0.164-0.24-0.289-0.404-0.376c-0.163-0.087-0.352-0.131-0.568-0.131    c-0.292,0-0.536,0.079-0.729,0.236c-0.193,0.157-0.337,0.382-0.436,0.67c-0.097,0.292-0.147,0.674-0.147,1.15    c0,0.756,0.133,1.3,0.398,1.636c0.221,0.276,0.525,0.416,0.914,0.416c0.294,0,0.538-0.078,0.732-0.237    c0.191-0.157,0.337-0.383,0.435-0.673c0.097-0.289,0.146-0.671,0.146-1.142c0-0.399-0.03-0.717-0.09-0.951    C9.843,44.1,9.759,43.902,9.654,43.738z M9.254,46.605c-0.155,0.219-0.345,0.329-0.572,0.329c-0.227,0-0.417-0.11-0.572-0.329    c-0.155-0.219-0.23-0.657-0.23-1.317c0-0.661,0.083-1.113,0.253-1.359c0.135-0.192,0.317-0.287,0.544-0.287    c0.231,0,0.423,0.107,0.578,0.326c0.155,0.216,0.232,0.657,0.232,1.32C9.486,45.946,9.409,46.385,9.254,46.605z"
         id="path229"
         style="fill:#ffffff" /><path
         d="M11.599,43.769c-0.207,0.185-0.448,0.342-0.724,0.473v0.477c0.153-0.057,0.327-0.141,0.52-0.254    c0.193-0.113,0.349-0.227,0.467-0.34v3.147h0.494v-4.041h-0.319C11.952,43.406,11.805,43.584,11.599,43.769z"
         id="path231"
         style="fill:#ffffff" /><path
         d="M14.308,43.769c-0.207,0.185-0.448,0.342-0.724,0.473v0.477c0.152-0.057,0.327-0.141,0.52-0.254    c0.193-0.113,0.35-0.227,0.467-0.34v3.147h0.494v-4.041h-0.318C14.661,43.406,14.514,43.584,14.308,43.769z"
         id="path233"
         style="fill:#ffffff" /><path
         d="M18.613,43.738c-0.107-0.164-0.24-0.289-0.404-0.376c-0.163-0.087-0.352-0.131-0.567-0.131    c-0.293,0-0.537,0.079-0.73,0.236c-0.193,0.157-0.337,0.382-0.436,0.67c-0.097,0.292-0.146,0.674-0.146,1.15    c0,0.756,0.132,1.3,0.397,1.636c0.221,0.276,0.526,0.416,0.915,0.416c0.293,0,0.537-0.078,0.73-0.237    c0.193-0.157,0.337-0.383,0.435-0.673c0.097-0.289,0.147-0.671,0.147-1.142c0-0.399-0.031-0.717-0.092-0.951    C18.803,44.1,18.72,43.902,18.613,43.738z M18.213,46.605c-0.155,0.219-0.345,0.329-0.571,0.329c-0.228,0-0.418-0.11-0.574-0.329    c-0.155-0.219-0.23-0.657-0.23-1.317c0-0.661,0.085-1.113,0.253-1.359c0.137-0.192,0.317-0.287,0.544-0.287    c0.231,0,0.423,0.107,0.578,0.326c0.155,0.216,0.232,0.657,0.232,1.32C18.446,45.946,18.369,46.385,18.213,46.605z"
         id="path235"
         style="fill:#ffffff" /></g></g><g
     id="_x31_87" /><g
     id="_x31_88" /><g
     id="_x31_89" /><g
     id="_x31_90" /></svg>